Coordinates
version=1
nRows=17
nColumns=40
inDegrees=yes

Units are S.I. units (second, meters, Newtons, ...)
Angles are in degrees.

endheader
time	pelvis_tilt	pelvis_list	pelvis_rotation	pelvis_tx	pelvis_ty	pelvis_tz	hip_flexion_r	hip_adduction_r	hip_rotation_r	knee_angle_r	knee_angle_r_beta	ankle_angle_r	subtalar_angle_r	mtp_angle_r	hip_flexion_l	hip_adduction_l	hip_rotation_l	knee_angle_l	knee_angle_l_beta	ankle_angle_l	subtalar_angle_l	mtp_angle_l	lumbar_extension	lumbar_bending	lumbar_rotation	arm_flex_r	arm_add_r	arm_rot_r	elbow_flex_r	pro_sup_r	wrist_flex_r	wrist_dev_r	arm_flex_l	arm_add_l	arm_rot_l	elbow_flex_l	pro_sup_l	wrist_flex_l	wrist_dev_l
      1.25000000	     -1.34855822	      3.40375209	      1.06976708	      0.04351790	      0.94231594	      1.42379746	     27.56006485	    -11.50836164	    -23.47386524	    -14.38173198	     -0.25100858	      0.57654464	      4.69236072	      2.15167407	     -6.65558807	     -3.57933140	     16.27562620	    -11.23260475	     -0.19604594	      8.21012377	      1.68012562	    -14.17444406	     -7.10219824	     -1.14684273	     -3.90501221	      3.07791027	    -10.82545102	    -26.52281065	     18.07184518	     89.95437384	      0.00000000	      0.00000000	     11.80758573	     16.85703105	      4.41397453	     36.80392645	     89.95437384	      0.00000000	      0.00000000
      1.26000000	     -1.00394436	      2.89225132	      1.62903773	      0.05239146	      0.94195392	      1.42491757	     26.82858097	    -11.03639890	    -24.41577090	    -13.43406324	     -0.23446864	      0.33223681	      6.04872138	      1.57915624	     -7.40181103	     -2.63758042	     16.37298669	    -11.67989025	     -0.20385254	      8.32646322	      0.50946041	    -14.55628872	     -7.49926046	     -0.47025941	     -4.46518786	      3.05635728	    -10.86895310	    -27.23488100	     17.55121074	     89.95437384	      0.00000000	      0.00000000	     11.83393755	     16.81086934	      4.40439023	     37.11737164	     89.95437384	      0.00000000	      0.00000000
      1.27000000	     -1.07093568	      2.94488882	      1.85986907	      0.06134859	      0.94071407	      1.42617188	     26.99899265	    -11.05538382	    -24.38207626	    -13.36555777	     -0.23327299	      0.48137641	      5.88078184	      1.51060111	     -7.83811009	     -2.50702117	     16.29695054	    -11.88829657	     -0.20748992	      8.46657972	      0.45585255	    -14.49514256	     -7.36016885	     -0.44495170	     -4.74417623	      2.75457009	    -10.93956268	    -27.25711622	     17.30476944	     89.95437384	      0.00000000	      0.00000000	     11.78882224	     16.78067407	      4.33882564	     37.23270375	     89.95437384	      0.00000000	      0.00000000
      1.28000000	     -0.71610641	      2.59276858	      2.36103748	      0.07072820	      0.94026720	      1.42737329	     26.40470721	    -10.74836866	    -24.68550504	    -13.29697282	     -0.23207596	      0.30821127	      5.48435754	      1.25572088	     -8.70874089	     -1.80415344	     16.09306801	    -12.13573135	     -0.21180847	      8.54300921	      0.01908830	    -14.67384328	     -7.68391228	      0.06488573	     -5.20929183	      2.61564299	    -10.98154317	    -28.03138713	     16.90424704	     89.95437384	      0.00000000	      0.00000000	     11.71146649	     16.68162755	      4.28652681	     37.41990089	     89.95437384	      0.00000000	      0.00000000
      1.29000000	     -0.85511113	      2.68828495	      2.57286283	      0.07983219	      0.93889104	      1.42904229	     26.61755559	    -10.82316434	    -24.27949346	    -13.70307627	     -0.23916380	      0.22391661	      5.27120997	      1.23025387	     -8.93652030	     -1.64787202	     15.93286362	    -12.61117614	     -0.22010655	      8.40398266	      0.04039327	    -14.41073106	     -7.45361658	     -0.01049990	     -5.35279547	      2.08255802	    -11.00892540	    -27.95306710	     16.98765800	     89.95437384	      0.00000000	      0.00000000	     11.58113825	     16.58704402	      4.27863140	     37.62053468	     89.95437384	      0.00000000	      0.00000000
      1.30000000	     -0.51275807	      2.42480394	      3.06962629	      0.08996017	      0.93828653	      1.43050626	     26.19711700	    -10.68441932	    -24.35518052	    -14.64751700	     -0.25564740	      0.68316429	      4.22674667	      1.10145463	     -9.92891933	     -1.02832991	     15.71584242	    -12.66935922	     -0.22112203	      8.80736310	     -0.34624520	    -14.48679204	     -7.60254997	      0.37620048	     -5.87964093	      2.05300519	    -11.13638553	    -28.23130905	     16.17190061	     89.95437384	      0.00000000	      0.00000000	     11.33444198	     16.53633789	      4.00367474	     37.60803613	     89.95437384	      0.00000000	      0.00000000
      1.31000000	     -0.15742953	      2.17458075	      3.49981179	      0.10003067	      0.93775886	      1.43238126	     25.62185129	    -10.44050741	    -24.21178646	    -15.38232942	     -0.26847230	      0.68117742	      3.25012584	      1.02606327	    -10.80522155	     -0.35124131	     15.66222925	    -12.93944092	     -0.22583585	      8.71155063	     -0.76907932	    -14.47509620	     -7.80790692	      0.71328439	     -6.24972272	      1.78800098	    -11.11590350	    -28.89778922	     15.87697455	     89.95437384	      0.00000000	      0.00000000	     11.09150036	     16.46158283	      3.80874626	     37.69228280	     89.95437384	      0.00000000	      0.00000000
      1.32000000	     -0.21096506	      2.17058232	      3.85795237	      0.11012972	      0.93655290	      1.43428131	     25.42064011	    -10.40593148	    -23.56992808	    -16.05001136	     -0.28012554	      0.53534198	      2.94853258	      0.99799138	    -11.18389700	      0.00652476	     15.53286654	    -13.37333826	     -0.23340878	      8.60374683	     -0.81569887	    -14.25546187	     -7.51452175	      0.74891947	     -6.57285525	      1.26013428	    -11.12100967	    -28.96517811	     15.91104051	     89.95437384	      0.00000000	      0.00000000	     10.72703623	     16.34917139	      3.69866806	     37.70571334	     89.95437384	      0.00000000	      0.00000000
      1.33000000	      0.55052546	      1.63086893	      4.22822638	      0.12096839	      0.93672313	      1.43698347	     24.19064791	     -9.68100915	    -23.67833991	    -16.63587456	     -0.29035079	     -0.31578661	      1.27537661	      1.00136122	    -12.55108407	      1.13203479	     15.64302717	    -13.60408989	     -0.23743616	      8.28939207	     -1.77749159	    -14.53189386	     -8.09872248	      1.39128208	     -6.72149509	      1.12495936	    -11.09558625	    -30.18108653	     15.33209153	     89.95437384	      0.00000000	      0.00000000	     10.49570241	     16.27258854	      3.17947794	     37.69495206	     89.95437384	      0.00000000	      0.00000000
      1.34000000	      0.70551870	      1.43691009	      4.41779444	      0.13128650	      0.93595740	      1.43951940	     23.92078320	     -9.48756028	    -23.96115910	    -17.35921655	     -0.30297548	     -2.50282199	      0.34297047	      1.27915924	    -13.16595225	      1.74791967	     15.78014321	    -14.00530479	     -0.24443868	      8.12786447	     -2.10391080	    -14.53980312	     -8.02532839	      1.62295936	     -6.80084704	      0.76460475	    -11.11727110	    -30.49660421	     15.12223523	     89.95437384	      0.00000000	      0.00000000	     10.21097126	     16.07322445	      3.01046126	     37.44660999	     89.95437384	      0.00000000	      0.00000000
      1.35000000	      0.89690483	      1.09026015	      4.49467635	      0.14146059	      0.93548492	      1.44238696	     23.75154348	     -9.14411987	    -23.87170042	    -18.21068890	     -0.31783648	     -4.13962945	     -0.22494166	      1.44198170	    -13.77755752	      2.49969712	     15.78847676	    -14.46603652	     -0.25247997	      7.96144574	     -2.11721336	    -14.45781242	     -8.00783030	      2.01895715	     -6.74368331	      0.55110681	    -11.18857887	    -30.72317715	     14.70379144	     89.95437384	      0.00000000	      0.00000000	      9.91155738	     15.79165566	      2.94761444	     37.17636530	     89.95437384	      0.00000000	      0.00000000
      1.36000000	      1.09818531	      0.70451243	      4.56380275	      0.15150127	      0.93532318	      1.44552580	     23.61109096	     -8.77085823	    -23.38228498	    -19.15919950	     -0.33439111	     -5.57286519	     -0.60707487	      1.46840739	    -14.24914227	      3.34505124	     15.92160984	    -15.19016779	     -0.26511844	      7.56061255	     -1.92866237	    -14.28191757	     -8.03752720	      2.44009742	     -6.68175351	      0.36202100	    -11.22084736	    -30.95021814	     14.36716640	     89.95437384	      0.00000000	      0.00000000	      9.60952381	     15.48517322	      3.02311109	     36.83579033	     89.95437384	      0.00000000	      0.00000000
      1.37000000	      1.34535128	     -0.24063885	      4.53758737	      0.16181926	      0.93536281	      1.44966943	     23.18592310	     -7.35252377	    -22.40056527	    -19.41136585	     -0.33879225	     -7.48945598	     -2.95773984	      0.45013833	    -14.54663102	      5.10912280	     17.29772257	    -16.39624155	     -0.28616840	      6.76431597	     -3.61135917	    -15.13702605	     -8.09224655	      3.42739062	     -6.36756864	      0.19547297	    -11.14822590	    -32.43709318	     14.12739249	     89.95437384	      0.00000000	      0.00000000	      9.30348165	     15.08854976	      3.16671675	     36.45317963	     89.95437384	      0.00000000	      0.00000000
      1.38000000	      1.37262671	     -0.45101390	      4.50279114	      0.17192432	      0.93522507	      1.45282347	     23.35908684	     -7.09113769	    -21.81623679	    -20.85835281	     -0.36404693	     -7.74638311	     -3.09879317	      0.37002165	    -14.78081218	      5.66159204	     16.95431900	    -17.20374948	     -0.30026207	      6.28087203	     -3.21479667	    -14.71662675	     -7.92103162	      3.61757533	     -6.26962010	     -0.12456271	    -11.17127460	    -32.19578294	     14.08456150	     89.95437384	      0.00000000	      0.00000000	      8.79347500	     14.79678563	      3.22823850	     36.24638309	     89.95437384	      0.00000000	      0.00000000
      1.39000000	      1.45813659	     -0.74535581	      4.29904393	      0.18230578	      0.93531797	      1.45641402	     23.50383246	     -6.59418020	    -21.52268700	    -22.39625750	     -0.39088843	     -7.12845091	     -3.83453232	      0.13761936	    -15.02917567	      6.30472934	     16.90953382	    -18.15922584	     -0.31693828	      5.65623078	     -2.57711536	    -14.29906231	     -7.79219157	      3.87385336	     -5.95900789	     -0.33188246	    -11.22443392	    -32.03664870	     13.72812506	     89.95437384	      0.00000000	      0.00000000	      8.27917122	     14.41378295	      3.47341180	     35.85766259	     89.95437384	      0.00000000	      0.00000000
      1.40000000	      1.46257413	     -1.05776714	      4.00051736	      0.19296367	      0.93557491	      1.46028954	     23.45722767	     -5.76406314	    -20.48809036	    -23.39364759	     -0.40829617	     -6.07622245	     -4.90458607	     -0.23285057	    -15.07370294	      7.01103107	     17.26713457	    -19.36003666	     -0.33789638	      4.84034736	     -1.77999247	    -13.91718723	     -7.50938957	      4.11625719	     -5.64328550	     -0.45170078	    -11.27799389	    -31.99551957	     13.31185997	     89.95437384	      0.00000000	      0.00000000	      7.65197853	     13.98285946	      3.93977646	     35.39026243	     89.95437384	      0.00000000	      0.00000000
      1.41000000	      1.43990968	     -1.72019806	      3.65069919	      0.20319354	      0.93595918	      1.46480220	     23.25620879	     -4.23483608	    -18.84946351	    -23.74850000	     -0.41448952	     -6.52984467	     -7.83200631	     -0.76930323	    -14.86535229	      8.23784160	     17.74888718	    -20.99561564	     -0.36644262	      3.88182828	     -1.74933867	    -14.02529639	     -7.25700023	      4.69373637	     -5.18633011	     -0.56548057	    -11.31747432	    -31.98413482	     13.01281455	     89.95437384	      0.00000000	      0.00000000	      6.95625887	     13.56379417	      4.40849237	     35.11269169	     89.95437384	      0.00000000	      0.00000000
